<?xml version="1.0" standalone="no"?>
<!DOCTYPE svg PUBLIC "-//W3C//DTD SVG 20010904//EN"
 "http://www.w3.org/TR/2001/REC-SVG-20010904/DTD/svg10.dtd">
<svg version="1.0" xmlns="http://www.w3.org/2000/svg"
 width="11455.000000pt" height="1790.000000pt" viewBox="0 0 11455.000000 1790.000000"
 preserveAspectRatio="xMidYMid meet">

<g transform="translate(0.000000,1790.000000) scale(0.100000,-0.100000)"
fill="#000000" stroke="none">
<path d="M8554 17818 c-122 -152 -304 -306 -502 -425 -204 -123 -453 -196
-1042 -308 -366 -69 -671 -137 -815 -180 -538 -163 -1006 -522 -1243 -953
-133 -243 -238 -627 -262 -955 -16 -238 8 -452 75 -654 41 -123 78 -196 144
-287 l50 -69 -72 -57 -72 -58 -49 72 c-70 100 -225 250 -330 320 -240 159
-548 266 -889 311 -152 19 -450 20 -577 0 -382 -59 -747 -250 -1069 -560 -215
-207 -341 -386 -692 -982 -175 -298 -287 -471 -407 -633 -47 -63 -123 -167
-168 -231 -45 -63 -114 -145 -152 -180 -79 -74 -216 -150 -357 -198 -50 -17
-96 -33 -103 -36 -8 -3 3 -28 34 -76 52 -80 111 -202 145 -299 20 -55 23 -86
23 -205 2 -317 -35 -726 -104 -1165 -70 -447 -100 -691 -107 -875 -22 -621
206 -1225 594 -1572 308 -275 655 -469 986 -553 147 -37 245 -50 375 -50 135
0 209 12 332 54 l98 33 33 -84 c19 -49 28 -87 23 -92 -5 -5 -34 -16 -64 -24
-166 -48 -390 -254 -562 -517 -218 -334 -409 -842 -447 -1192 -38 -340 39
-715 218 -1072 158 -315 256 -437 795 -990 335 -344 385 -399 511 -556 228
-284 337 -507 386 -788 10 -63 19 -143 19 -179 0 -58 2 -64 17 -58 94 39 257
74 396 84 338 26 667 -61 1327 -352 539 -237 758 -321 970 -371 578 -137 1144
-52 1569 233 353 238 650 565 802 885 94 199 128 341 129 532 l0 131 -182 7
c-100 4 -189 11 -197 15 -8 5 -37 37 -65 72 -59 73 -124 116 -234 154 -179 63
-250 110 -267 177 -7 25 -5 26 32 22 156 -18 235 -21 273 -13 52 12 59 16 190
99 250 160 364 186 633 144 56 -9 143 -16 192 -16 80 0 108 5 253 51 228 71
328 84 453 61 133 -25 264 -129 310 -247 44 -116 36 -272 -22 -385 -20 -40
-17 -44 25 -28 17 6 29 22 37 50 7 22 14 40 16 40 2 0 30 -13 62 -29 55 -28
60 -29 112 -17 l54 12 -35 7 c-19 4 -66 25 -104 46 l-69 39 -3 104 c-3 158
-42 260 -130 337 -24 21 -41 41 -37 45 3 3 41 6 83 6 107 0 172 22 231 77 86
81 88 158 4 251 -25 27 -45 52 -45 55 0 19 90 31 224 32 172 0 179 3 157 76
-17 57 -99 141 -174 179 -33 16 -66 30 -74 30 -23 0 -14 19 22 42 19 13 46 44
60 71 l26 47 40 -33 c41 -35 47 -39 200 -111 78 -37 106 -56 156 -109 33 -35
84 -104 114 -153 59 -98 174 -221 227 -243 l34 -14 -8 -61 c-4 -34 -10 -90
-13 -126 l-6 -65 -70 -37 c-38 -21 -76 -38 -82 -38 -8 0 -13 14 -13 39 0 106
-78 252 -167 310 -117 78 -285 83 -367 11 -45 -40 -60 -79 -54 -142 5 -43 11
-57 41 -85 55 -50 82 -52 188 -17 25 9 62 -78 67 -157 l4 -66 -88 -7 c-107 -8
-178 -38 -224 -96 -63 -79 -91 -183 -52 -194 51 -15 92 -14 151 2 74 21 67 28
-44 38 -85 8 -86 9 -40 89 48 83 91 100 276 110 74 3 155 13 181 21 26 9 91
44 143 80 84 56 169 95 178 83 2 -2 25 -32 50 -66 52 -68 71 -79 113 -62 l29
11 -30 15 c-44 22 -84 62 -108 108 -17 32 -22 57 -22 125 0 73 4 93 28 142 30
61 90 122 143 144 43 18 135 18 177 0 42 -17 83 -66 98 -116 30 -101 -87 -218
-166 -166 -30 20 -32 45 -5 79 18 22 18 26 4 38 -34 28 -81 -37 -70 -96 9 -45
57 -85 102 -85 49 0 111 28 139 63 23 30 27 31 107 33 119 3 242 29 302 64 28
16 44 30 36 30 -8 0 -80 -11 -160 -25 -221 -38 -240 -35 -240 29 0 23 -7 64
-16 90 -13 39 -26 54 -72 84 -54 36 -58 37 -142 36 -100 -2 -149 -22 -212 -85
-21 -22 -46 -39 -56 -39 -57 0 -198 140 -262 260 -25 46 -69 110 -99 143 -46
50 -73 67 -188 123 -160 76 -195 102 -223 159 -17 34 -20 58 -18 117 3 66 5
73 23 70 11 -2 34 -16 51 -32 39 -34 119 -54 188 -47 28 3 98 24 155 47 155
63 183 63 373 1 231 -75 289 -71 498 34 131 66 195 85 283 85 119 0 280 -67
407 -169 65 -53 101 -93 151 -171 54 -83 125 -157 197 -205 55 -37 68 -42 83
-32 27 17 20 28 -39 62 -28 17 -52 33 -52 37 0 4 20 16 44 27 29 12 54 34 71
60 26 39 28 40 54 27 73 -38 138 -28 171 26 24 40 25 81 3 119 -15 26 -23 29
-65 29 -35 0 -54 -6 -69 -21 -24 -24 -20 -46 7 -40 10 2 35 4 54 5 31 1 35 -2
38 -26 4 -32 -31 -68 -66 -68 -39 0 -82 54 -82 104 1 106 97 134 262 76 107
-36 128 -37 158 -5 l23 25 -44 0 c-25 0 -87 14 -139 30 -127 42 -168 46 -214
25 -20 -10 -42 -27 -48 -39 -6 -11 -12 -23 -14 -25 -2 -2 -20 10 -41 26 -60
47 -98 63 -153 63 -89 0 -131 -37 -146 -129 l-6 -40 -77 68 c-156 139 -332
211 -520 211 -58 0 -85 21 -95 75 -11 59 12 83 62 64 40 -15 105 -2 150 31 53
38 76 98 70 180 -6 77 -42 131 -118 174 -48 27 -64 31 -130 31 -115 -1 -207
-52 -271 -154 l-28 -44 -11 27 c-5 15 -12 37 -16 50 -10 43 -64 95 -131 128
-99 48 -161 45 -323 -18 -108 -41 -135 -48 -200 -48 -71 -1 -78 1 -130 37 -31
21 -67 37 -83 37 -38 0 -67 -49 -67 -115 0 -122 44 -185 180 -261 52 -30 105
-65 116 -78 27 -31 78 -160 71 -179 -3 -8 -23 -17 -44 -20 -21 -4 -78 -23
-126 -43 -99 -40 -177 -52 -229 -35 -19 6 -59 29 -88 51 -83 62 -114 51 -129
-46 l-6 -43 -56 38 -57 38 31 47 c18 28 42 91 59 154 16 59 37 118 47 132 17
24 27 27 134 45 24 4 37 11 37 22 0 28 -39 79 -75 99 -19 10 -35 21 -35 24 0
4 15 17 33 30 50 37 205 168 277 236 l65 61 35 -13 c56 -20 109 -16 226 18 88
26 128 32 204 33 95 0 95 0 210 -55 112 -54 117 -55 200 -54 78 0 92 4 170 41
153 74 171 75 330 18 98 -36 202 -38 276 -6 73 32 133 97 150 162 17 64 17 63
-85 78 -126 19 -186 69 -263 219 l-33 64 25 16 c14 9 58 48 98 86 68 66 73 69
79 47 13 -49 51 -107 92 -138 98 -75 218 -70 350 14 80 51 121 63 266 74 71 5
148 14 170 20 56 15 101 52 116 96 14 44 4 54 -78 78 -63 18 -109 56 -168 139
-61 85 -83 103 -188 155 -100 50 -96 45 -118 160 -19 98 -98 199 -170 216 -25
6 -29 2 -52 -49 -37 -80 -77 -85 -248 -30 -113 37 -189 37 -252 1 -46 -28 -87
-90 -87 -135 0 -15 -12 -28 -42 -43 -171 -85 -204 -271 -62 -340 43 -20 50
-21 101 -9 61 15 73 8 72 -40 0 -59 -58 -110 -125 -110 -81 0 -170 88 -245
242 l-22 47 119 127 c108 117 273 289 429 448 610 626 922 1050 966 1312 16
94 1 145 -55 200 -58 55 -128 74 -272 74 -153 0 -268 -22 -391 -76 -56 -24
-204 -84 -330 -133 -376 -147 -518 -211 -736 -328 -76 -41 -141 -72 -144 -70
-2 3 2 117 11 254 35 557 51 1217 41 1687 l-7 335 -72 3 c-39 2 -71 7 -70 13
0 6 31 26 67 45 l67 35 0 83 c0 109 -16 411 -40 742 -10 145 -17 266 -15 269
18 17 1007 -109 1470 -188 162 -27 205 -28 205 -2 0 23 -951 198 -1500 276
-102 15 -186 27 -187 28 -3 4 -43 410 -41 411 2 1 39 29 83 61 l80 60 -65 4
c-36 2 -234 -2 -440 -8 -206 -7 -634 -18 -950 -26 -1289 -33 -2198 -65 -3130
-110 -601 -29 -916 -59 -1161 -111 l-76 -16 61 -62 c54 -54 159 -201 239 -336
15 -25 35 -56 45 -69 l19 -23 119 15 c65 9 120 14 122 13 1 -2 -3 -102 -9
-223 -10 -180 -10 -241 1 -336 16 -143 9 -326 -21 -497 -20 -120 -21 -144 -15
-640 6 -550 15 -787 46 -1270 32 -473 88 -1038 140 -1414 11 -77 18 -142 15
-145 -12 -11 -756 69 -1246 135 -141 18 -261 34 -266 34 -8 0 -82 -217 -87
-254 -3 -23 853 -125 1439 -171 109 -9 200 -17 202 -18 1 -2 18 -99 38 -217
95 -571 206 -1112 331 -1615 54 -216 187 -706 191 -702 2 2 -26 128 -62 280
-77 328 -178 827 -234 1162 -68 403 -159 1070 -148 1082 3 3 92 0 199 -6 434
-24 897 -33 1403 -28 636 8 1053 27 1598 73 104 9 190 14 192 12 6 -5 -265
-523 -353 -673 -322 -556 -829 -1129 -1337 -1512 -99 -74 -304 -211 -391 -259
-35 -20 -64 -37 -64 -39 0 -2 25 3 55 10 51 11 55 11 61 -7 3 -11 32 -49 64
-84 75 -83 80 -104 41 -193 -35 -78 -39 -131 -14 -176 51 -94 50 -89 40 -157
-14 -90 -4 -129 48 -192 l44 -55 -47 -30 c-99 -63 -160 -73 -344 -57 -75 7
-101 6 -113 -4 -24 -20 -18 -73 14 -117 50 -69 118 -111 246 -153 106 -35 165
-67 223 -123 28 -28 52 -55 52 -60 0 -4 -12 -6 -26 -5 -24 3 -27 -1 -49 -87
-32 -125 -60 -205 -110 -312 -169 -362 -524 -696 -856 -806 -135 -45 -263 -61
-438 -54 -238 9 -454 61 -738 178 -368 151 -426 173 -548 214 -112 38 -650
195 -830 243 -45 13 -107 17 -250 16 -211 0 -284 -13 -504 -88 -57 -20 -105
-36 -106 -36 -1 0 -5 71 -8 158 -7 178 -29 301 -82 448 -50 140 -92 207 -335
532 -305 407 -373 489 -636 764 -603 629 -734 1129 -456 1743 90 198 193 349
336 490 90 89 260 224 283 225 6 0 40 -55 76 -122 35 -68 95 -175 132 -238 88
-148 296 -470 304 -470 3 0 69 63 146 140 l140 140 -291 292 -290 293 -24 93
-23 94 194 194 194 194 -230 230 -230 230 350 350 350 350 -350 350 -350 350
230 230 230 230 -194 194 -193 193 21 94 22 94 292 292 292 293 -159 159 -158
159 27 81 c27 78 29 81 45 64 80 -86 354 -379 393 -419 l49 -51 -124 -134
c-489 -527 -537 -582 -528 -598 5 -9 71 -78 147 -153 l138 -137 47 44 47 45
-106 104 c-119 118 -117 109 -35 190 l50 49 81 -74 c45 -41 90 -87 102 -102
l21 -29 44 43 c24 24 44 49 44 55 0 7 -46 55 -102 107 l-101 95 30 38 c17 22
47 54 66 73 l35 33 101 -103 101 -104 48 48 47 48 -102 95 c-57 53 -103 100
-103 106 0 11 131 158 141 158 15 0 339 -346 339 -362 0 -6 -62 -76 -138 -157
-312 -333 -497 -534 -505 -547 -5 -9 20 -43 80 -106 49 -51 198 -211 331 -355
l243 -263 -149 -157 c-82 -87 -159 -166 -170 -177 -21 -18 -22 -18 -94 59 -40
43 -75 82 -77 87 -2 6 42 56 98 112 l101 102 -48 47 -48 47 -99 -100 c-55 -55
-102 -99 -105 -98 -3 2 -32 31 -64 66 l-60 63 104 104 105 105 -47 47 -46 46
-102 -104 -102 -104 -59 65 c-32 36 -59 67 -59 70 0 3 45 52 100 108 55 56
100 105 100 110 0 11 -76 82 -88 82 -7 0 -85 -78 -236 -237 l-59 -62 39 -43
c21 -25 129 -141 239 -259 110 -118 244 -263 299 -322 l99 -107 -49 -53 c-26
-28 -156 -167 -289 -307 -132 -140 -262 -278 -288 -306 l-48 -52 172 -162 171
-162 47 46 46 47 -125 118 -125 119 20 23 c11 13 40 43 64 67 l43 43 27 -23
c14 -13 70 -65 125 -117 l99 -95 45 49 46 48 -124 117 -124 116 21 30 c12 16
39 46 61 68 l40 38 29 -20 c15 -11 68 -61 118 -111 49 -50 97 -91 105 -91 9 0
27 12 41 28 55 60 60 49 -76 176 l-126 117 73 75 73 75 34 -38 c19 -21 88 -96
153 -166 65 -71 118 -132 118 -137 0 -5 -33 -44 -72 -88 -40 -43 -170 -183
-288 -310 -118 -128 -216 -239 -218 -246 -2 -7 4 -18 12 -25 13 -11 11 -16
-15 -39 l-30 -27 172 -185 c94 -102 234 -252 310 -334 l139 -149 -83 -90 c-45
-50 -119 -129 -164 -176 l-82 -86 -66 65 -67 65 126 120 126 120 -46 47 -45
48 -120 -115 c-67 -63 -124 -115 -129 -115 -4 0 -35 29 -68 65 l-61 65 119
110 c66 61 122 115 124 119 8 12 -63 91 -81 91 -9 0 -67 -49 -129 -110 -63
-61 -118 -110 -123 -110 -5 0 -36 30 -68 66 l-58 67 125 119 124 118 -47 47
-46 47 -93 -89 c-51 -50 -128 -123 -171 -164 l-78 -74 28 -31 c16 -17 103
-110 194 -206 90 -96 226 -241 302 -321 l137 -147 -187 -202 c-104 -112 -188
-207 -188 -212 0 -13 254 -328 265 -328 5 0 17 12 27 27 l17 26 -102 96 c-56
53 -102 100 -102 104 0 5 28 38 62 73 l62 64 103 -102 104 -102 47 47 47 47
-103 96 c-56 52 -102 101 -102 107 1 7 32 46 71 87 l69 75 116 -120 c64 -66
141 -148 172 -183 l55 -63 -20 -22 c-11 -12 -98 -107 -194 -210 -96 -104 -177
-195 -181 -201 -4 -8 10 -32 35 -60 l42 -47 204 221 c113 121 208 219 212 218
4 -2 136 -140 293 -307 l286 -304 -85 -91 c-47 -50 -121 -130 -165 -178 l-80
-86 62 -25 63 -25 143 146 c79 81 155 162 169 179 l25 33 -49 77 c-27 43 -65
105 -83 138 -29 51 -405 461 -886 965 l-43 45 365 395 c200 217 364 400 364
406 0 6 15 66 33 133 19 67 29 116 22 109 -6 -7 -47 -51 -91 -98 -43 -47 -142
-154 -219 -238 -76 -84 -142 -151 -147 -150 -4 2 -132 137 -285 301 l-278 297
83 88 c46 48 172 183 280 299 190 207 196 212 215 195 11 -9 128 -133 260
-276 165 -177 242 -254 247 -245 4 8 15 37 25 66 l19 52 -25 30 c-13 16 -98
109 -189 207 -91 98 -278 300 -416 450 l-252 271 222 235 c339 361 827 880
854 910 l25 27 -269 283 c-500 526 -829 879 -831 891 -2 7 228 262 511 567
l514 555 -21 23 c-18 19 -30 22 -72 20 l-50 -3 -277 -300 c-152 -165 -281
-300 -286 -300 -5 0 -136 136 -292 303 l-282 302 -47 0 c-37 0 -52 -5 -69 -23
l-21 -23 181 -194 c100 -107 239 -257 310 -334 l129 -139 -29 -31 c-16 -17
-87 -94 -157 -171 -70 -77 -132 -142 -137 -144 -6 -2 -39 25 -75 60 l-65 64
126 120 125 120 -44 48 -44 48 -120 -115 c-67 -64 -124 -116 -129 -116 -7 0
-66 59 -107 108 l-19 23 124 118 124 117 -38 42 c-21 23 -45 42 -54 42 -8 0
-66 -49 -128 -110 -62 -60 -117 -110 -122 -110 -6 0 -24 17 -41 37 -28 34 -30
41 -25 97 l6 61 91 87 92 87 -47 47 -46 47 -56 -53 c-54 -51 -57 -52 -71 -34
-8 10 -15 22 -15 26 0 4 -21 20 -47 35 -71 42 -162 38 -308 -11 -304 -102
-563 -325 -701 -602 -47 -95 -58 -129 -79 -240 -85 -461 -118 -921 -104 -1439
14 -480 81 -955 203 -1432 l34 -133 -99 0 c-186 0 -415 42 -577 106 -172 69
-384 196 -519 312 -197 170 -331 419 -384 718 -30 168 -30 466 0 684 69 499
79 645 83 1185 l3 370 -28 106 c-46 177 -113 324 -222 484 -68 101 -74 115
-50 115 36 0 289 92 380 138 202 102 302 189 488 427 65 83 176 224 248 315
144 182 298 407 434 634 405 670 833 946 1398 898 409 -35 713 -163 1003 -423
l41 -37 -59 -59 c-141 -137 -377 -401 -527 -588 -9 -10 18 11 59 49 150 135
284 226 455 307 180 85 416 152 635 181 l95 12 120 106 c331 291 635 517 870
645 79 44 91 47 178 52 153 9 234 -25 252 -108 4 -19 -15 -138 -55 -340 -35
-170 -60 -312 -57 -316 8 -7 269 25 277 34 3 5 21 89 39 188 36 200 119 602
154 739 l22 89 95 29 c355 109 736 183 1150 225 244 24 786 24 1030 0 223 -23
404 -49 600 -88 292 -58 655 -160 670 -188 32 -62 228 -1011 310 -1506 11 -66
14 -72 56 -105 49 -38 201 -192 252 -255 l33 -40 -5 40 c-34 260 -162 959
-232 1273 -38 172 -41 212 -18 252 33 55 66 65 209 65 l130 0 145 -79 c528
-287 908 -573 1346 -1010 462 -463 784 -904 1077 -1476 55 -107 101 -196 101
-197 1 -1 57 -11 126 -23 69 -12 179 -38 244 -56 65 -19 121 -32 123 -30 6 6
-81 213 -160 379 -206 432 -503 896 -817 1272 -133 160 -331 374 -443 480
l-98 93 53 45 c244 207 557 332 923 368 400 39 725 -82 1025 -381 152 -151
270 -311 464 -632 121 -200 260 -391 530 -731 283 -357 365 -431 591 -541 84
-41 329 -126 362 -126 21 0 15 -11 -67 -136 -125 -189 -194 -358 -227 -552
-14 -84 -15 -146 -4 -561 11 -474 20 -590 67 -913 35 -244 44 -569 20 -736
-59 -399 -227 -667 -556 -887 -254 -170 -491 -258 -769 -286 -113 -11 -120
-13 -125 -35 -4 -13 -10 -24 -15 -24 -20 0 -108 91 -128 132 -12 24 -34 89
-49 144 -14 54 -34 115 -44 135 -30 58 -97 109 -219 166 -272 127 -287 138
-380 266 -129 180 -228 238 -431 253 -89 7 -89 7 -95 -18 -5 -19 10 -58 59
-157 76 -151 112 -196 196 -240 33 -18 60 -36 60 -41 0 -16 -96 -59 -167 -76
-49 -12 -93 -14 -158 -10 -312 21 -287 21 -323 -9 -42 -35 -42 -55 1 -55 155
0 413 -163 451 -286 9 -30 -10 -34 -190 -43 -139 -7 -157 -10 -216 -38 -76
-36 -153 -105 -164 -147 -11 -45 18 -62 116 -69 139 -9 252 -85 399 -265 87
-108 123 -140 219 -196 60 -36 62 -38 62 -79 0 -51 -28 -100 -72 -127 l-33
-20 -12 52 c-7 33 -22 62 -42 82 -29 29 -37 31 -116 35 -55 2 -85 7 -85 15 0
41 -27 93 -76 146 -101 108 -196 115 -385 30 -116 -53 -168 -56 -250 -17 -71
34 -81 34 -104 -5 -47 -81 -13 -172 105 -280 66 -61 71 -68 80 -121 5 -31 13
-64 19 -74 18 -34 66 -71 123 -96 66 -29 77 -46 94 -145 21 -120 87 -196 164
-190 30 3 38 9 55 47 34 70 78 83 210 61 108 -18 160 14 212 126 21 46 28 53
61 59 95 17 219 96 284 182 48 63 95 159 110 224 11 48 16 54 86 101 41 28
118 92 172 143 114 110 144 127 230 132 94 6 96 2 60 -99 -16 -48 -30 -88 -30
-91 0 -2 28 -13 63 -23 95 -29 383 -26 524 4 363 79 736 277 1057 561 320 283
524 701 597 1221 7 47 12 173 13 280 0 240 -17 391 -118 1038 -42 264 -63 449
-71 627 -4 72 -13 204 -21 295 -17 187 -13 263 22 368 27 81 99 229 151 311
19 29 33 54 31 55 -2 0 -41 14 -88 30 -47 15 -139 56 -204 89 -145 75 -208
133 -316 292 -41 61 -114 164 -163 229 -129 173 -233 335 -416 644 -248 420
-379 625 -481 752 -320 400 -731 672 -1175 777 -117 27 -127 28 -400 28 -244
-1 -297 -4 -410 -23 -320 -55 -561 -145 -780 -289 -127 -84 -183 -139 -256
-248 -36 -53 -69 -93 -76 -91 -7 3 -43 29 -82 57 l-70 53 52 73 c77 108 93
139 122 227 48 145 66 257 72 457 9 315 -40 601 -157 915 -136 363 -372 656
-711 883 -363 244 -597 323 -1426 481 -501 95 -811 179 -977 262 -191 96 -438
290 -563 442 -36 44 -72 87 -78 94 -9 10 -24 -2 -71 -60z m143 -605 c138 -186
325 -349 498 -436 76 -38 808 -281 985 -326 85 -22 243 -58 350 -81 522 -107
821 -242 1056 -475 182 -180 279 -377 345 -701 29 -145 36 -388 15 -530 -15
-102 -65 -307 -79 -320 -3 -3 -72 32 -154 79 -1169 670 -2480 933 -3823 766
-829 -103 -1640 -385 -2372 -824 l-138 -83 -34 107 c-62 193 -71 253 -71 486
0 223 5 268 55 460 66 254 161 418 335 583 155 147 359 262 615 346 123 40
202 60 580 141 191 41 431 113 805 241 206 70 369 132 414 156 165 91 345 257
466 431 33 48 63 86 66 87 4 0 42 -48 86 -107z m2252 -5559 c7 -58 10 -109 7
-111 -5 -6 -293 22 -350 34 -26 5 -10 15 145 93 96 48 177 88 180 89 3 0 12
-47 18 -105z m-214 -220 c121 -8 225 -16 231 -18 6 -2 14 -37 17 -78 4 -40 15
-170 26 -288 44 -471 73 -969 92 -1535 12 -365 5 -1544 -9 -1652 l-7 -51 -167
-111 c-219 -145 -395 -286 -548 -440 -146 -146 -230 -248 -342 -417 l-81 -121
-101 -7 c-542 -33 -1798 -43 -2331 -18 -546 26 -1076 61 -1089 73 -10 9 -48
416 -70 754 -75 1143 -65 2407 29 3570 8 99 15 186 15 194 0 11 14 13 73 7
557 -49 1398 -86 1947 -86 898 0 1470 72 1810 229 51 24 96 23 505 -5z m-7435
-1083 c-53 -67 -302 -306 -297 -286 3 11 38 127 78 258 l72 238 88 -87 88 -87
-29 -36z m1236 -850 l285 -304 -29 -31 c-70 -77 -394 -420 -471 -499 l-85 -89
-35 39 c-19 21 -141 152 -270 292 -130 140 -242 263 -249 273 -15 21 -49 -18
327 386 124 133 229 241 233 240 4 -2 136 -140 294 -307z m-1558 -164 l112
-112 -161 -168 c-89 -92 -163 -166 -165 -165 -1 2 3 43 11 92 l13 88 62 63 63
63 -45 47 -44 47 15 79 c8 44 17 79 21 79 3 0 56 -51 118 -113z m62 -983 l295
-295 -302 -299 c-233 -231 -303 -295 -303 -277 -1 45 -11 203 -14 219 -4 17
16 37 269 281 l80 77 -173 172 -173 173 7 123 c4 67 10 122 13 122 3 0 139
-133 301 -296z m10884 151 c146 -27 200 -66 322 -226 107 -142 109 -143 404
-282 88 -42 151 -93 184 -150 14 -23 39 -91 56 -152 45 -156 62 -182 178 -272
l22 -18 -25 -80 -25 -81 -83 0 c-119 0 -178 -31 -322 -166 -61 -57 -126 -113
-145 -125 -126 -77 -330 -66 -463 26 -25 17 -83 72 -129 123 -240 267 -315
316 -506 330 l-34 3 24 35 c28 41 76 75 127 91 20 6 101 14 181 19 80 4 159
11 175 15 17 4 68 29 115 56 104 59 159 73 254 67 156 -10 257 -120 258 -279
1 -87 -29 -150 -91 -194 -36 -25 -54 -30 -115 -33 -124 -7 -193 38 -203 131
-11 109 99 173 150 87 19 -32 57 -42 57 -15 0 29 -30 75 -60 90 -93 48 -200
-29 -200 -145 0 -111 82 -189 210 -198 94 -6 149 10 210 65 62 55 90 125 90
222 0 137 -59 226 -189 290 -66 32 -81 45 -121 101 -24 36 -73 95 -108 131
l-63 67 40 19 c29 13 42 26 46 46 4 16 5 30 3 31 -36 26 -68 44 -89 49 -38 9
-100 58 -131 103 -15 21 -47 83 -72 137 -52 111 -56 106 68 82z m-11123 -519
c-41 -41 -78 -73 -83 -70 -10 6 -11 278 -1 288 4 4 41 -27 82 -69 l76 -75 -74
-74z m11261 -21 c53 -43 138 -154 138 -182 0 -13 -4 -15 -119 -38 -40 -8 -85
-24 -100 -34 -15 -11 -32 -21 -38 -23 -6 -2 -34 30 -63 70 -62 88 -137 146
-250 192 -45 19 -78 36 -72 38 5 1 40 -1 78 -5 48 -6 110 -3 204 8 74 9 142
17 150 18 8 0 41 -20 72 -44z m-11084 -998 c-24 -4 -67 -6 -96 -4 -75 5 -90
23 -107 133 -26 155 -31 155 115 9 l130 -130 -42 -8z m10555 82 c119 -33 197
-200 131 -278 -58 -70 -184 -43 -184 40 0 64 27 80 72 41 18 -15 48 -10 48 8
0 21 -53 60 -82 60 -40 0 -65 -15 -83 -50 -48 -92 24 -180 148 -180 l55 0 7
-42 c12 -72 40 -114 109 -162 66 -47 131 -76 172 -76 15 0 24 -6 24 -15 0 -26
-28 -72 -57 -95 -25 -19 -37 -21 -153 -18 -146 3 -175 -7 -211 -72 -13 -22
-25 -40 -28 -40 -3 0 -20 9 -38 20 -42 25 -59 61 -68 140 -10 94 -27 128 -72
146 -135 55 -153 74 -164 166 -8 66 -17 80 -102 145 -31 24 -63 56 -71 71 -18
37 -27 89 -20 117 l6 23 74 -25 c90 -30 130 -27 225 19 77 37 165 67 199 67
14 1 42 -4 63 -10z m867 -201 c0 -7 -21 -55 -46 -107 -53 -109 -145 -211 -224
-249 -107 -51 -225 -47 -321 12 -106 64 -143 150 -100 234 26 51 58 73 116 79
39 5 47 2 76 -26 28 -29 31 -36 25 -74 -12 -78 -84 -94 -98 -22 -2 12 -13 21
-27 23 -22 4 -24 1 -18 -34 4 -21 15 -46 25 -57 23 -23 77 -25 118 -4 16 8 49
17 73 20 76 10 126 61 145 148 15 63 14 63 157 66 71 2 99 -1 99 -9z m-11460
-93 c-46 -46 -85 -83 -87 -82 -1 2 -9 34 -17 73 -19 89 -14 94 103 94 l86 0
-85 -85z m9752 -12 c37 -40 53 -77 72 -166 22 -99 46 -128 137 -162 81 -31
117 -59 161 -124 50 -75 109 -131 171 -162 31 -16 57 -33 57 -38 0 -14 -34
-39 -74 -56 -32 -13 -57 -15 -132 -10 -125 10 -177 -4 -275 -71 -98 -68 -149
-82 -225 -66 -30 6 -71 21 -90 32 -102 64 -117 247 -24 295 76 40 169 -1 156
-68 -10 -48 -46 -61 -96 -32 -35 20 -50 18 -50 -4 0 -29 24 -48 70 -56 69 -12
97 0 116 50 21 55 13 99 -23 137 -52 54 -131 57 -211 8 -18 -11 -35 -20 -37
-20 -3 0 -5 21 -5 48 0 136 -169 312 -301 312 -17 0 -32 6 -35 15 -9 23 15 72
48 100 39 33 86 32 225 -1 179 -44 262 -35 304 32 11 19 24 34 28 34 4 0 19
-12 33 -27z m-523 -224 c190 -83 236 -369 86 -523 -21 -21 -56 -46 -78 -56
l-39 -18 -57 57 -58 56 49 52 c26 28 48 62 49 75 2 45 -3 73 -22 110 -10 20
-21 54 -25 77 -4 28 -13 42 -26 47 -30 9 -44 -10 -30 -41 8 -17 8 -33 2 -50
-8 -22 -15 -25 -58 -25 -38 0 -53 5 -71 24 -45 48 -37 138 18 190 61 59 162
69 260 25z m-497 -251 c52 -105 132 -182 261 -250 92 -48 162 -125 230 -250
86 -160 146 -207 300 -233 20 -3 37 -10 37 -14 0 -16 -59 -89 -92 -112 -55
-40 -152 -39 -285 2 -157 48 -201 46 -328 -17 -93 -46 -105 -49 -176 -49 -71
0 -83 3 -185 53 -168 81 -241 85 -418 25 -78 -26 -204 -38 -221 -21 -4 4 48
62 115 129 l122 123 87 23 c127 33 172 30 298 -18 174 -67 293 -63 379 13 55
48 45 76 -36 98 -101 27 -146 65 -200 168 -30 56 -78 110 -123 137 -15 9 -1
27 89 128 59 64 110 117 113 117 4 0 19 -24 33 -52z m-8414 -595 c-40 -40 -75
-73 -78 -73 -7 0 -28 57 -106 278 -30 84 -54 159 -54 165 0 6 70 -58 155 -143
l155 -155 -72 -72z m8208 315 c11 -12 39 -54 61 -93 53 -90 83 -117 166 -150
37 -15 67 -31 67 -35 0 -5 -21 -18 -46 -30 -68 -33 -158 -24 -290 29 -66 27
-117 41 -146 41 -44 0 -131 -14 -173 -27 -21 -6 105 138 219 249 66 65 69 67
95 54 14 -8 35 -25 47 -38z m-146 -828 c136 -70 160 -240 44 -308 -32 -19 -51
-22 -106 -20 -75 4 -100 20 -118 74 -9 26 -8 40 2 61 18 38 51 41 89 8 35 -29
53 -28 57 3 5 33 -67 76 -114 69 -59 -10 -80 -30 -87 -81 -9 -67 10 -114 60
-149 76 -54 182 -50 259 10 l47 35 -6 -88 c-7 -94 -2 -122 33 -218 11 -32 19
-60 16 -63 -10 -11 -85 -23 -141 -24 -47 0 -84 9 -170 41 -60 23 -132 45 -160
48 l-50 7 -31 87 c-47 130 -88 175 -224 243 -73 36 -108 71 -121 118 -11 43
-2 147 13 147 5 0 28 -13 51 -28 102 -70 178 -69 362 3 146 58 219 64 295 25z
m550 -26 c68 -20 125 -74 135 -128 15 -79 -40 -168 -111 -182 -69 -13 -164 36
-164 84 0 11 8 30 18 42 21 27 57 21 65 -10 3 -11 12 -20 21 -20 20 0 22 62 4
77 -21 16 -69 22 -99 11 -46 -16 -69 -107 -39 -153 16 -24 18 -40 13 -85 -4
-45 -1 -66 16 -105 11 -26 21 -49 21 -50 0 -1 -14 -5 -32 -9 -17 -3 -36 -10
-42 -15 -6 -6 -37 -23 -68 -39 l-57 -30 -15 24 c-22 33 -46 129 -46 184 1 115
50 257 116 329 75 84 157 107 264 75z m-1505 -155 c25 -12 45 -25 45 -30 0 -5
-18 -12 -39 -15 -89 -14 -128 -67 -158 -213 -17 -89 -42 -130 -94 -156 -60
-31 -136 -10 -159 44 -18 45 -5 99 25 107 42 10 60 1 63 -33 4 -37 27 -62 44
-45 6 6 11 29 12 52 1 56 -27 80 -94 80 -43 0 -53 -4 -83 -36 -31 -33 -34 -41
-30 -83 3 -25 14 -62 25 -81 12 -20 16 -36 9 -38 -5 -2 -53 -30 -105 -63 l-94
-59 -78 16 c-90 19 -182 14 -231 -11 -18 -9 -43 -15 -55 -13 -19 2 -24 10 -26
43 -2 22 3 47 10 56 7 9 78 42 158 74 269 106 539 247 730 379 36 25 68 45 73
45 4 1 27 -8 52 -20z m-1075 -521 c0 -18 3 -43 6 -55 5 -19 0 -23 -33 -32 -72
-19 -150 -23 -221 -11 -40 6 -72 15 -72 19 0 5 289 107 313 110 4 1 7 -14 7
-31z m842 20 c48 -14 121 -76 138 -118 20 -49 8 -125 -25 -160 -59 -62 -145
-57 -179 9 -22 42 -20 58 13 92 27 26 91 43 76 20 -8 -13 35 -25 47 -13 13 13
0 52 -17 52 -7 0 -15 5 -17 11 -6 18 -92 2 -122 -22 -17 -13 -28 -34 -32 -60
-4 -21 -10 -39 -15 -39 -5 0 -23 13 -41 28 -57 48 -106 82 -134 92 l-27 11 33
34 c63 65 200 94 302 63z m2572 -32 c73 -55 88 -143 37 -213 -27 -38 -82 -73
-114 -73 -16 0 -117 105 -117 121 0 5 12 6 28 2 75 -20 132 15 132 81 0 65
-47 78 -52 14 -3 -41 -5 -43 -38 -46 -42 -4 -60 16 -60 70 0 25 7 45 21 59 31
31 114 23 163 -15z m-3002 -76 c81 -25 156 -73 283 -183 61 -53 127 -99 169
-119 224 -107 228 -110 261 -191 l16 -38 -53 8 c-73 11 -194 8 -248 -7 -25 -6
-99 -35 -165 -63 -115 -50 -124 -52 -210 -52 -98 0 -149 18 -208 74 -61 56
-77 141 -38 204 49 79 180 112 240 61 36 -30 39 -51 10 -88 -18 -23 -28 -26
-79 -26 -62 0 -80 -11 -60 -35 19 -23 108 -19 148 5 60 37 79 133 34 173 -47
43 -136 58 -203 36 -57 -20 -126 -76 -142 -117 -29 -75 -30 -107 -3 -159 55
-105 123 -156 230 -173 71 -12 155 -5 211 16 9 4 15 -11 19 -49 6 -44 12 -56
31 -65 30 -14 85 -5 85 14 0 7 -10 14 -21 16 -12 2 -31 15 -42 30 -17 23 -19
32 -9 52 22 48 79 46 136 -5 153 -134 -65 -299 -324 -245 -41 9 -113 34 -160
57 -111 55 -241 183 -314 309 -97 170 -136 220 -225 289 -123 95 -188 162
-200 207 -6 21 -9 39 -8 41 2 1 43 -9 92 -23 129 -36 241 -30 425 25 157 46
226 51 322 21z m-844 -143 c38 -54 106 -117 175 -161 72 -46 98 -78 192 -236
87 -145 150 -221 253 -302 l66 -53 -99 -8 c-73 -6 -134 -20 -237 -53 -76 -24
-145 -44 -154 -44 -9 0 -56 40 -105 89 -69 69 -97 106 -124 163 l-35 73 54 6
c100 11 158 81 158 189 0 134 -103 224 -257 225 -58 0 -78 -4 -116 -27 -25
-15 -58 -43 -73 -63 -15 -19 -30 -35 -35 -35 -4 0 -16 19 -28 43 -48 99 -115
146 -213 147 -50 1 -36 6 145 54 110 29 241 64 290 78 l90 25 12 -34 c6 -18
25 -52 41 -76z m-733 -81 c-67 -26 -145 -41 -145 -28 0 8 157 50 190 51 8 0
-12 -10 -45 -23z m200 -27 c84 -23 137 -86 137 -164 0 -78 -58 -145 -125 -145
-64 0 -127 53 -127 107 0 63 73 85 112 33 23 -32 43 -38 51 -16 7 18 -26 71
-56 90 -21 14 -29 14 -73 1 -59 -17 -75 -40 -76 -106 -1 -133 115 -191 255
-127 l57 27 0 -52 c0 -101 40 -209 121 -329 22 -31 39 -58 39 -60 0 -2 -60 -3
-133 -4 -142 -1 -240 -19 -285 -55 -14 -10 -29 -19 -34 -19 -5 0 -26 -11 -46
-25 -20 -14 -40 -25 -45 -25 -4 0 -28 19 -52 41 -61 56 -70 92 -48 192 l16 77
-32 34 c-49 51 -53 107 -12 185 17 33 31 72 31 86 0 37 -31 93 -85 153 -26 28
-44 56 -41 60 3 5 36 2 73 -6 73 -16 49 -21 273 52 26 8 64 6 105 -5z m490
-60 c50 -14 100 -51 120 -89 8 -16 15 -52 15 -80 0 -88 -40 -142 -104 -142
-95 0 -146 92 -72 131 28 15 36 51 11 51 -47 0 -95 -53 -95 -105 0 -35 69
-199 120 -286 24 -40 64 -88 100 -119 33 -28 60 -55 60 -60 0 -14 -124 -20
-185 -8 -51 10 -66 18 -106 59 -84 86 -149 253 -149 385 0 192 124 307 285
263z m1868 -473 c63 -30 102 -73 140 -149 37 -78 51 -154 35 -202 -12 -35 -20
-41 -73 -62 -32 -13 -71 -23 -85 -23 -24 0 -25 3 -27 60 -2 76 -17 123 -58
180 -18 25 -38 62 -44 82 -12 37 -43 68 -67 68 -21 0 -21 -34 0 -58 16 -18 18
-27 10 -50 -9 -24 -15 -27 -54 -26 -55 1 -90 37 -90 92 0 44 20 76 64 103 47
30 173 23 249 -15z"/>
<path d="M4047 9352 l-167 -167 170 -170 169 -169 166 164 c91 90 165 169 165
174 0 11 -297 313 -321 326 -12 7 -53 -29 -182 -158z m261 -106 l62 -60 -75
-76 -76 -76 -74 75 -74 76 71 72 c82 82 68 83 166 -11z"/>
<path d="M52185 17458 c-11 -6 -25 -19 -32 -27 -10 -13 -12 -1846 -13 -8498
l0 -8482 23 -26 c32 -37 89 -37 126 -1 l26 26 3 8457 c1 5825 -1 8468 -8 8494
-16 57 -77 85 -125 57z"/>
<path d="M49475 16519 c-73 -35 -183 -64 -330 -86 -102 -16 -415 -17 -4232
-20 l-4123 -3 0 -33 c0 -26 6 -36 31 -51 66 -39 227 -166 300 -237 302 -295
489 -695 563 -1209 43 -293 41 -80 41 -5800 0 -5720 2 -5507 -41 -5800 -62
-428 -208 -793 -427 -1065 -111 -138 -312 -318 -438 -392 -23 -14 -29 -24 -29
-50 l0 -33 3020 0 3020 0 0 31 c0 27 -18 50 -114 149 -417 430 -658 903 -771
1516 -29 156 -60 426 -76 659 -14 201 -26 4313 -12 4325 4 4 121 1 258 -6 138
-8 273 -11 300 -8 80 8 648 -14 784 -31 457 -58 752 -201 943 -459 51 -68 113
-184 156 -289 11 -25 16 -27 67 -27 l55 0 0 1560 0 1560 -60 0 c-37 0 -88 -9
-134 -25 -221 -74 -456 -87 -1536 -83 l-835 3 0 1805 0 1805 935 0 c689 0 969
-3 1065 -13 538 -53 892 -162 1189 -365 162 -111 356 -315 456 -480 30 -51 38
-57 67 -57 l33 0 0 1620 0 1620 -32 -1 c-18 0 -60 -14 -93 -30z"/>
<path d="M19000 16377 c0 -30 7 -38 65 -76 106 -70 254 -201 343 -302 245
-278 408 -647 477 -1083 52 -323 48 3 55 -4951 5 -3420 10 -4623 18 -4720 60
-651 135 -1010 294 -1409 310 -780 952 -1461 1773 -1882 555 -285 1155 -446
1844 -495 214 -15 719 -7 901 15 1319 160 2432 818 3244 1919 l101 137 3 -895
2 -895 2510 0 2510 0 0 33 c0 27 -7 36 -48 62 -156 98 -360 294 -473 455 -221
314 -338 662 -396 1180 -17 158 -18 401 -18 5610 0 5133 1 5454 18 5597 58
501 166 838 366 1139 117 175 311 369 486 485 58 38 65 46 65 76 l0 33 -2975
0 -2975 0 0 -33 c0 -29 7 -38 63 -77 186 -130 368 -313 482 -484 212 -319 327
-692 376 -1226 14 -161 13 -7000 -2 -7340 -40 -930 -177 -1611 -428 -2135
-350 -728 -895 -1097 -1661 -1122 -197 -6 -324 5 -499 43 -437 97 -814 337
-1052 670 -272 379 -418 849 -458 1469 -16 233 -17 8286 -2 8440 80 813 328
1310 834 1668 79 56 87 65 87 94 l0 33 -2965 0 -2965 0 0 -33z"/>
<path d="M34100 16377 c0 -30 7 -38 64 -75 96 -64 247 -194 320 -275 341 -381
502 -833 546 -1542 8 -131 10 -1646 8 -5535 -3 -5029 -5 -5364 -21 -5498 -67
-543 -185 -883 -416 -1191 -111 -149 -310 -336 -453 -426 -41 -26 -48 -35 -48
-62 l0 -33 3000 0 3000 0 0 33 c0 28 -8 37 -63 73 -242 159 -462 404 -596 664
-157 306 -234 616 -271 1093 -14 188 -14 10735 0 10927 43 564 155 949 375
1280 119 180 298 361 476 482 71 48 78 56 79 86 l0 32 -3000 0 -3000 0 0 -33z"/>
<path d="M91490 15473 l0 -838 -22 35 c-72 117 -122 182 -188 250 -229 230
-551 346 -908 326 -321 -18 -587 -132 -802 -346 -189 -187 -311 -434 -355
-715 -25 -161 -17 -449 18 -595 120 -505 467 -849 954 -947 122 -24 406 -24
519 0 245 52 439 158 595 324 56 60 86 101 176 240 9 14 12 -44 12 -274 l1
-293 165 0 165 0 0 1835 0 1835 -165 0 -165 0 0 -837z m-775 -532 c295 -61
523 -237 659 -508 147 -294 152 -682 11 -980 -53 -113 -89 -166 -174 -255
-115 -123 -270 -215 -436 -259 -120 -32 -348 -37 -475 -11 -376 78 -634 328
-742 720 -18 66 -22 106 -22 272 -1 200 3 234 46 370 70 224 246 440 451 554
71 40 218 91 298 105 98 16 287 12 384 -8z"/>
<path d="M96900 14475 l0 -1835 165 0 164 0 4 743 c3 714 4 745 24 828 75 305
247 530 488 640 166 75 417 100 608 61 267 -56 454 -232 530 -499 21 -77 22
-88 25 -925 l3 -848 170 0 170 0 -4 888 c-3 857 -4 890 -24 977 -91 390 -324
626 -703 708 -125 27 -379 29 -520 4 -218 -40 -390 -122 -528 -251 -93 -89
-152 -166 -206 -271 l-36 -70 0 843 0 842 -165 0 -165 0 0 -1835z"/>
<path d="M110990 15473 l0 -838 -21 35 c-137 226 -292 372 -503 471 -346 162
-833 138 -1160 -58 -303 -182 -498 -461 -581 -833 -11 -48 -18 -143 -22 -265
-4 -163 -2 -207 15 -310 83 -481 366 -833 794 -983 230 -81 527 -93 771 -31
188 48 349 140 493 283 78 78 114 125 201 262 9 15 12 -43 12 -273 l1 -293
165 0 165 0 0 1835 0 1835 -165 0 -165 0 0 -837z m-775 -532 c256 -53 462
-192 601 -407 201 -308 229 -744 69 -1081 -56 -119 -113 -199 -201 -284 -85
-81 -140 -118 -246 -169 -129 -62 -219 -82 -393 -87 -123 -4 -167 -1 -245 15
-408 84 -699 397 -760 821 -19 130 -8 353 24 476 80 308 302 565 582 671 169
64 392 82 569 45z"/>
<path d="M62798 16199 c-49 -14 -117 -74 -139 -123 -25 -54 -24 -148 0 -201
56 -120 191 -168 309 -109 159 79 170 320 19 408 -49 29 -134 40 -189 25z"/>
<path d="M73371 16196 c-92 -30 -152 -118 -152 -222 0 -125 86 -222 205 -232
69 -6 118 11 169 57 53 48 77 101 77 176 0 92 -46 172 -121 211 -42 21 -128
26 -178 10z"/>
<path d="M92891 16196 c-92 -30 -152 -118 -152 -222 0 -125 86 -222 205 -232
69 -6 118 11 169 57 53 48 77 101 77 176 0 92 -46 172 -121 211 -42 21 -128
26 -178 10z"/>
<path d="M84230 16114 c-14 -2 -59 -9 -100 -15 -260 -37 -551 -155 -780 -317
-122 -86 -336 -299 -423 -422 -128 -182 -232 -424 -278 -645 -27 -132 -36
-407 -19 -553 43 -368 212 -720 480 -996 273 -281 598 -457 975 -528 158 -29
486 -32 635 -4 348 63 636 186 893 379 l67 51 0 633 0 633 -150 0 -150 0 -2
-552 -3 -553 -65 -43 c-147 -97 -351 -181 -550 -229 -155 -37 -409 -43 -575
-15 -217 38 -393 108 -577 231 -491 329 -730 904 -618 1485 27 138 52 212 121
351 195 397 573 691 1012 787 88 19 131 22 312 22 178 0 225 -3 308 -22 240
-53 455 -150 636 -287 94 -72 116 -84 127 -73 7 7 51 60 99 118 l85 105 -36
30 c-167 137 -410 272 -609 337 -207 69 -332 89 -575 93 -118 2 -226 2 -240
-1z"/>
<path d="M55662 14943 l3 -1158 23 -109 c60 -283 168 -498 338 -673 185 -189
420 -308 722 -365 166 -31 512 -32 682 0 564 104 935 463 1050 1014 36 175 40
307 40 1391 l0 1057 -169 0 -170 0 -4 -1122 c-4 -1225 -2 -1175 -63 -1376
-102 -336 -358 -571 -712 -653 -125 -29 -400 -36 -541 -15 -234 36 -402 118
-557 271 -148 147 -225 288 -275 511 l-23 99 -3 1143 -4 1142 -170 0 -170 0 3
-1157z"/>
<path d="M101550 14370 l0 -1730 160 0 160 0 0 1488 c1 1217 3 1484 14 1470 7
-9 313 -596 681 -1303 l669 -1286 94 3 95 3 671 1296 671 1296 6 -266 c4 -146
7 -814 8 -1483 l1 -1218 160 0 160 0 -2 1728 -3 1727 -213 0 -213 0 -667
-1292 c-531 -1029 -669 -1290 -678 -1278 -6 8 -312 591 -679 1295 l-667 1280
-214 0 -214 0 0 -1730z"/>
<path d="M13600 16001 c-276 -92 -552 -229 -825 -408 -71 -47 -131 -86 -132
-87 -2 -1 8 -52 22 -112 67 -303 79 -631 31 -884 -7 -39 -11 -70 -8 -70 2 0
31 16 63 36 191 116 478 215 760 263 61 11 113 22 116 25 8 8 59 221 93 386
48 237 63 383 64 615 0 217 -6 285 -27 285 -7 0 -77 -22 -157 -49z"/>
<path d="M3446 16008 c-10 -43 -26 -291 -26 -397 0 -206 31 -508 78 -756 l17
-89 119 -18 c150 -22 301 -59 436 -104 116 -39 334 -142 420 -197 30 -20 56
-35 57 -34 1 1 -7 52 -17 112 -38 218 -36 499 6 730 8 44 17 98 20 120 l6 41
-93 70 c-127 95 -296 210 -400 272 -161 97 -475 238 -591 267 -23 6 -28 3 -32
-17z"/>
<path d="M74660 15485 l0 -335 -185 0 -185 0 0 -125 0 -125 185 0 185 0 0
-792 c0 -471 4 -830 10 -883 23 -197 75 -320 181 -428 74 -74 164 -124 279
-153 98 -25 306 -15 423 20 105 31 194 70 270 119 l56 36 -50 125 -51 125 -61
-34 c-34 -19 -105 -48 -157 -66 -82 -28 -110 -32 -200 -33 -93 -1 -111 2 -160
25 -98 46 -153 121 -188 256 -15 62 -17 142 -17 873 l0 805 418 3 417 2 0 130
0 130 -417 0 -418 -1 -3 331 -2 330 -165 0 -165 0 0 -335z"/>
<path d="M60630 15225 c-366 -50 -630 -222 -789 -515 l-41 -75 0 298 0 297
-165 0 -165 0 0 -1295 0 -1295 165 0 165 0 0 714 c0 785 1 800 62 984 33 100
97 216 163 296 100 120 269 225 430 267 104 27 315 37 422 19 299 -48 497
-227 575 -521 22 -83 22 -93 25 -921 l4 -838 165 0 165 0 -3 908 -3 907 -28
100 c-77 281 -238 478 -481 591 -180 83 -425 112 -666 79z"/>
<path d="M67176 15229 c-292 -33 -542 -153 -741 -353 -190 -192 -309 -435
-351 -716 -24 -163 -15 -414 19 -560 116 -493 465 -835 960 -942 137 -29 435
-32 572 -5 274 54 509 169 685 335 l71 67 -95 94 -95 94 -64 -60 c-292 -273
-785 -359 -1162 -203 -307 129 -531 438 -571 793 l-7 57 1082 0 1081 0 0 89
c0 668 -314 1141 -845 1276 -163 42 -366 54 -539 34z m299 -269 c129 -15 197
-35 311 -90 164 -79 295 -216 380 -393 38 -82 78 -229 89 -329 l7 -68 -932 0
-932 0 7 57 c46 369 290 673 625 781 144 46 287 60 445 42z"/>
<path d="M70375 15229 c-102 -13 -238 -54 -330 -98 -180 -88 -317 -225 -425
-423 l-40 -73 0 298 0 297 -165 0 -165 0 0 -1295 0 -1295 165 0 165 0 0 698
c0 408 5 726 10 767 52 363 254 644 543 755 94 37 184 56 300 66 l87 7 0 153
0 154 -37 -1 c-21 -1 -69 -5 -108 -10z"/>
<path d="M71485 15224 c-275 -49 -487 -180 -577 -358 -48 -95 -59 -143 -65
-276 -9 -215 33 -329 171 -465 124 -123 233 -174 696 -324 135 -44 281 -98
325 -119 96 -47 186 -126 223 -196 25 -47 27 -61 27 -166 0 -106 -2 -120 -28
-172 -49 -100 -164 -181 -318 -225 -51 -14 -100 -18 -244 -18 -162 0 -191 3
-288 28 -186 46 -341 119 -488 229 -44 32 -81 58 -83 58 -7 0 -126 -217 -126
-229 0 -21 161 -138 258 -189 342 -177 794 -222 1132 -111 153 51 307 148 380
241 89 112 129 223 137 383 9 183 -32 318 -134 441 -130 155 -259 217 -838
400 -199 63 -310 119 -389 198 -79 77 -101 138 -94 256 10 170 111 276 315
332 112 30 337 30 480 -1 131 -27 257 -72 361 -126 l82 -44 60 119 c33 66 60
124 60 129 0 16 -194 110 -303 146 -157 52 -308 75 -495 74 -87 0 -193 -7
-237 -15z"/>
<path d="M77230 15230 c-189 -24 -332 -66 -505 -150 -117 -57 -314 -177 -322
-195 -7 -20 135 -227 150 -218 7 4 48 31 92 60 98 66 254 142 357 177 141 46
223 59 378 59 176 0 272 -18 388 -73 141 -67 236 -174 289 -327 24 -70 27 -95
31 -255 l4 -176 -528 -4 c-450 -4 -543 -7 -624 -22 -347 -64 -573 -230 -657
-481 -24 -71 -27 -96 -27 -220 -1 -120 2 -151 22 -215 68 -214 198 -367 397
-465 156 -77 226 -90 470 -90 136 0 231 5 270 13 180 40 333 103 450 187 59
42 171 152 213 210 l21 30 1 -217 0 -218 167 0 166 0 -6 918 c-6 846 -8 924
-26 1008 -72 343 -304 568 -666 644 -116 24 -385 34 -505 20z m870 -1533 c0
-193 -7 -226 -75 -356 -127 -242 -379 -397 -702 -432 -266 -29 -479 28 -619
166 -100 99 -139 208 -132 369 5 105 32 177 92 244 86 95 203 142 436 176 14
2 244 4 513 5 l487 1 0 -173z"/>
<path d="M79742 15226 c-227 -44 -413 -140 -521 -271 -88 -106 -125 -226 -125
-400 0 -166 28 -257 116 -372 109 -143 241 -212 684 -359 176 -58 352 -121
391 -140 109 -52 185 -120 225 -201 30 -61 33 -76 33 -158 0 -121 -21 -178
-92 -255 -60 -66 -152 -117 -258 -146 -92 -25 -328 -30 -445 -10 -114 20 -271
71 -372 122 -85 42 -225 133 -252 163 -11 12 -24 21 -30 21 -6 0 -39 -52 -74
-115 l-63 -115 36 -31 c223 -196 528 -309 875 -325 512 -24 897 186 984 539
11 43 17 109 18 175 0 189 -43 309 -153 427 -138 147 -267 208 -765 364 -214
67 -315 111 -395 171 -105 79 -143 152 -143 275 0 93 25 163 79 223 139 155
451 201 788 116 110 -27 237 -77 316 -124 30 -17 55 -30 56 -28 2 2 31 59 65
127 48 96 59 126 48 132 -102 66 -282 136 -448 176 -89 21 -135 25 -305 29
-142 2 -221 -1 -273 -10z"/>
<path d="M87420 15233 c-101 -10 -246 -38 -330 -65 -118 -37 -324 -137 -452
-220 l-97 -63 71 -110 c39 -61 72 -112 74 -114 1 -1 40 22 86 52 294 196 582
278 868 248 198 -21 326 -74 430 -180 124 -126 159 -225 167 -478 l6 -173
-459 0 c-590 0 -724 -12 -916 -84 -124 -47 -192 -90 -284 -181 -130 -128 -183
-263 -184 -462 -1 -380 251 -673 650 -755 81 -17 122 -19 285 -15 170 4 202 8
308 35 136 35 294 107 382 174 60 46 147 133 197 198 l27 35 1 -217 0 -218
165 0 166 0 -6 903 c-8 1057 -7 1050 -101 1243 -120 246 -379 406 -719 444
-85 9 -257 11 -335 3z m830 -1533 c0 -146 -3 -180 -21 -233 -104 -312 -380
-515 -759 -558 -345 -40 -634 88 -719 317 -45 120 -46 264 -1 368 45 106 176
202 326 240 114 29 198 33 687 35 l487 1 0 -170z"/>
<path d="M94830 15234 c-119 -14 -248 -40 -330 -66 -118 -37 -324 -137 -452
-220 l-98 -63 71 -110 c39 -61 73 -112 74 -113 2 -2 36 19 77 46 291 196 592
283 878 253 198 -21 325 -74 431 -180 69 -70 117 -152 145 -251 10 -35 18
-117 21 -227 l6 -173 -459 0 c-590 0 -724 -12 -916 -84 -124 -47 -192 -90
-284 -181 -140 -139 -191 -277 -182 -499 4 -96 11 -138 32 -201 85 -251 286
-432 561 -506 100 -27 371 -38 497 -20 184 26 382 98 503 181 64 44 176 150
210 200 15 22 32 40 36 40 5 0 9 -94 9 -210 l0 -210 165 0 164 0 -5 893 c-3
517 -9 926 -15 972 -48 375 -299 630 -699 710 -73 15 -369 27 -440 19z m820
-1556 l0 -193 -33 -75 c-109 -250 -319 -416 -610 -482 -136 -31 -371 -31 -482
0 -111 32 -190 76 -263 149 -76 75 -117 157 -132 264 -40 287 135 473 486 518
38 4 286 9 552 10 l482 1 0 -192z"/>
<path d="M106875 15229 c-194 -24 -372 -80 -550 -174 -121 -63 -275 -161 -275
-174 0 -8 118 -199 136 -220 1 -1 40 22 86 52 294 196 582 278 868 248 202
-21 339 -80 441 -189 116 -123 159 -260 159 -502 l0 -140 -457 0 c-589 0 -723
-12 -915 -84 -123 -46 -190 -89 -284 -181 -129 -127 -183 -263 -184 -458 -1
-383 250 -677 650 -759 81 -17 122 -19 285 -15 170 4 202 8 308 35 136 35 294
107 382 174 60 46 147 133 197 198 l27 35 1 -217 0 -218 165 0 165 0 -1 328
c-1 180 -5 606 -9 947 -7 592 -8 624 -29 698 -92 331 -320 531 -685 603 -99
19 -371 26 -481 13z m875 -1534 c0 -171 -1 -178 -30 -253 -78 -203 -206 -341
-404 -437 -263 -128 -623 -138 -840 -22 -148 79 -235 204 -255 367 -36 286
135 462 494 510 33 4 279 8 548 9 l487 1 0 -175z"/>
<path d="M113110 15234 c-133 -16 -242 -38 -327 -65 -122 -38 -326 -138 -456
-221 l-97 -64 71 -109 c39 -61 73 -112 74 -113 2 -2 36 19 77 46 291 196 592
283 878 253 198 -21 325 -74 431 -180 120 -120 158 -232 166 -483 l6 -166
-529 -5 c-572 -4 -621 -8 -796 -63 -270 -85 -451 -265 -504 -500 -26 -119 -16
-292 23 -407 37 -105 80 -179 152 -258 98 -110 247 -198 406 -240 100 -27 371
-38 497 -20 303 43 555 176 705 372 36 47 38 49 45 27 3 -13 6 -107 7 -210 l1
-188 164 0 163 0 -4 888 c-2 510 -8 923 -14 972 -45 376 -297 634 -699 715
-73 15 -370 28 -440 19z m820 -1556 l0 -193 -33 -75 c-110 -251 -326 -421
-617 -483 -142 -30 -366 -30 -475 1 -227 65 -367 211 -396 414 -41 283 136
472 487 517 38 4 286 9 552 10 l482 1 0 -192z"/>
<path d="M62700 13935 l0 -1295 165 0 165 0 0 1295 0 1295 -165 0 -165 0 0
-1295z"/>
<path d="M63544 15213 c3 -10 235 -592 515 -1293 l508 -1275 177 0 177 0 512
1290 513 1290 -170 3 c-97 1 -172 -1 -175 -7 -3 -5 -195 -512 -426 -1126 -269
-715 -423 -1111 -428 -1103 -5 7 -199 513 -431 1123 l-423 1110 -177 3 c-166
2 -177 1 -172 -15z"/>
<path d="M73280 13935 l0 -1295 165 0 165 0 0 1295 0 1295 -165 0 -165 0 0
-1295z"/>
<path d="M92797 13798 c-3 -1345 -4 -1437 -21 -1503 -42 -163 -124 -273 -233
-316 -80 -31 -205 -30 -326 1 -48 12 -89 21 -91 19 -6 -7 -77 -241 -74 -244
11 -9 126 -46 193 -61 107 -25 313 -25 405 0 236 64 387 237 453 521 21 89 21
107 24 1553 l4 1462 -165 0 -165 0 -4 -1432z"/>
<path d="M3497 12392 c-116 -182 -242 -410 -338 -607 -86 -178 -161 -345 -154
-345 3 0 87 32 330 126 l100 39 -53 5 c-39 4 -59 12 -80 33 -25 26 -27 33 -26
115 0 73 6 105 37 195 36 106 145 340 226 485 22 39 39 72 37 72 -2 0 -38 -53
-79 -118z"/>
<path d="M4034 11381 l160 -160 75 69 c42 38 116 109 166 159 l90 91 -325 0
-325 0 159 -159z m203 62 l-37 -38 -37 38 -38 37 75 0 75 0 -38 -37z"/>
<path d="M4774 11078 c-153 -161 -371 -388 -484 -506 -113 -118 -207 -218
-208 -223 -4 -9 86 -105 563 -604 110 -115 247 -259 305 -320 l105 -110 146
150 c128 133 629 659 781 820 l57 61 -281 294 c-540 566 -692 725 -698 728 -4
1 -132 -129 -286 -290z m461 -79 c94 -99 171 -184 172 -187 1 -4 -77 -90 -175
-190 l-177 -184 -176 188 -176 189 171 181 c94 100 176 182 181 183 6 1 87
-80 180 -180z m-446 -468 c94 -98 171 -182 171 -186 0 -11 -331 -360 -345
-363 -11 -3 -345 336 -353 358 -3 9 337 370 349 370 3 0 83 -81 178 -179z
m895 -3 l175 -182 -62 -65 c-34 -37 -114 -121 -178 -188 l-117 -123 -176 186
-177 185 57 62 c158 170 289 307 295 307 4 0 86 -82 183 -182z m-304 -619 l29
-36 -171 -182 c-94 -99 -174 -181 -178 -181 -4 0 -45 39 -92 88 -46 48 -123
128 -172 179 -48 50 -87 96 -85 101 2 5 81 91 174 190 l170 181 148 -152 c81
-84 161 -168 177 -188z"/>
<path d="M106050 10955 c-255 -55 -466 -231 -562 -470 -54 -133 -60 -177 -65
-442 l-5 -253 -164 0 -164 0 0 -130 0 -130 165 0 165 0 0 -1130 0 -1130 165 0
165 0 0 1130 0 1130 380 0 380 0 0 130 0 130 -380 0 -380 0 0 223 c0 254 14
338 73 435 84 141 248 232 419 232 71 0 192 -27 272 -61 38 -16 70 -28 71 -27
2 2 21 61 43 131 l40 128 -30 19 c-43 26 -201 77 -278 89 -88 15 -231 12 -310
-4z"/>
<path d="M85330 9105 l0 -1835 165 0 165 0 0 1835 0 1835 -165 0 -165 0 0
-1835z"/>
<path d="M75002 10830 c-52 -12 -109 -56 -139 -107 -37 -63 -39 -165 -5 -230
75 -143 269 -166 373 -44 84 97 79 231 -11 322 -61 61 -131 80 -218 59z"/>
<path d="M55740 8995 l0 -1725 170 0 170 0 0 1725 0 1725 -170 0 -170 0 0
-1725z"/>
<path d="M88070 8995 l0 -1725 170 0 170 0 0 755 0 755 815 0 815 0 0 155 0
155 -815 0 -815 0 2 663 3 662 913 3 912 2 0 150 0 150 -1085 0 -1085 0 0
-1725z"/>
<path d="M60428 10118 l-3 -333 -187 -3 -188 -2 0 -79 c0 -43 3 -99 6 -125 l7
-46 183 0 183 0 3 -872 c3 -865 4 -874 25 -951 82 -290 293 -447 599 -447 169
0 305 34 464 116 137 71 130 55 80 181 -24 59 -47 115 -51 124 -7 15 -17 12
-81 -21 -153 -80 -307 -112 -428 -91 -124 22 -204 95 -250 227 l-25 69 -3 833
-3 832 421 0 420 0 0 130 0 131 -420 -3 -420 -3 0 333 0 332 -165 0 -165 0 -2
-332z"/>
<path d="M73080 10115 l0 -335 -185 0 -185 0 0 -125 0 -125 185 0 185 0 0
-803 c0 -485 4 -836 10 -887 37 -307 197 -505 456 -566 96 -22 309 -15 413 15
135 40 331 136 331 164 0 6 -21 64 -46 128 l-47 117 -79 -40 c-103 -52 -171
-74 -266 -89 -102 -16 -178 -5 -255 34 -100 52 -153 146 -177 312 -6 41 -10
388 -10 843 l0 772 420 0 420 0 0 130 0 130 -417 0 -418 -1 -3 331 -2 330
-165 0 -165 0 0 -335z"/>
<path d="M11820 10123 c0 -19 58 -100 97 -134 96 -86 217 -154 493 -274 276
-120 372 -176 444 -256 l39 -43 -6 56 c-21 206 -226 350 -812 568 -246 91
-255 94 -255 83z"/>
<path d="M58292 9860 c-244 -31 -451 -118 -608 -255 -72 -63 -126 -132 -194
-245 l-50 -83 0 291 0 292 -165 0 -165 0 0 -1295 0 -1295 165 0 164 0 3 758 3
757 28 100 c87 320 293 546 577 633 111 34 209 45 352 39 229 -9 366 -64 503
-202 125 -125 183 -255 205 -465 5 -54 10 -423 10 -857 l0 -763 165 0 166 0
-3 903 -3 902 -27 96 c-55 201 -126 327 -252 446 -121 116 -267 189 -452 228
-94 20 -319 28 -422 15z"/>
<path d="M63030 9860 c-548 -68 -949 -442 -1072 -998 -29 -132 -32 -441 -5
-576 55 -270 167 -487 347 -666 170 -170 373 -278 623 -332 136 -29 432 -32
577 -5 257 48 508 171 681 334 l70 66 -92 93 -92 92 -80 -68 c-139 -118 -313
-204 -496 -243 -130 -27 -351 -29 -471 -4 -298 64 -539 257 -667 534 -37 81
-76 221 -88 316 l-6 57 1082 0 1082 0 -6 163 c-6 184 -26 309 -69 447 -136
431 -427 694 -858 775 -102 19 -356 27 -460 15z m407 -286 c265 -54 484 -227
594 -471 39 -84 77 -228 85 -320 l7 -73 -932 0 -932 0 7 48 c57 404 306 703
666 802 155 42 343 48 505 14z"/>
<path d="M66235 9859 c-335 -43 -599 -228 -756 -529 l-34 -65 -3 298 -2 297
-165 0 -165 0 0 -1295 0 -1295 165 0 165 0 0 688 c0 729 3 783 50 950 55 195
179 377 335 491 116 84 293 144 468 157 l97 7 0 153 0 154 -42 -1 c-24 -1 -74
-6 -113 -10z"/>
<path d="M68145 9864 c-409 -45 -693 -224 -861 -544 l-29 -55 -3 298 -2 297
-165 0 -165 0 0 -1295 0 -1295 165 0 165 0 0 691 c0 768 3 819 64 1000 43 127
106 236 190 326 171 183 353 261 631 270 115 4 158 1 238 -15 296 -61 497
-276 546 -582 7 -41 11 -362 11 -877 l0 -813 170 0 171 0 -4 888 c-3 861 -4
890 -24 977 -28 119 -55 195 -99 274 -124 226 -323 371 -592 432 -86 19 -319
32 -407 23z"/>
<path d="M70950 9863 c-101 -10 -246 -38 -330 -65 -118 -37 -324 -137 -452
-220 l-98 -63 71 -110 c39 -61 73 -112 74 -113 2 -2 36 19 77 46 291 196 592
283 878 253 198 -21 325 -74 431 -180 69 -70 117 -152 145 -251 10 -35 18
-117 21 -227 l6 -173 -459 0 c-590 0 -724 -12 -916 -84 -124 -47 -192 -90
-284 -181 -140 -139 -191 -277 -182 -499 4 -96 11 -138 32 -201 90 -267 312
-454 611 -516 174 -36 451 -22 645 31 87 25 238 94 305 140 64 44 176 150 210
200 15 22 32 40 36 40 5 0 9 -94 9 -210 l0 -210 165 0 165 0 -6 893 c-3 517
-9 926 -15 972 -53 409 -346 673 -804 725 -85 9 -257 11 -335 3z m820 -1555
l0 -193 -33 -75 c-109 -250 -319 -416 -610 -482 -136 -31 -371 -31 -482 0
-111 32 -190 76 -263 149 -76 75 -117 157 -132 264 -40 287 135 473 486 518
38 4 286 9 552 10 l482 1 0 -192z"/>
<path d="M77016 9855 c-426 -61 -774 -308 -959 -680 -154 -312 -176 -741 -55
-1085 150 -424 493 -714 954 -807 124 -24 423 -25 547 0 414 83 734 330 907
700 78 166 120 372 120 588 0 366 -119 673 -353 916 -178 185 -391 299 -660
354 -133 27 -365 34 -501 14z m479 -305 c92 -25 221 -83 292 -131 83 -56 184
-160 244 -251 205 -312 227 -773 53 -1121 -169 -337 -524 -530 -927 -503 -447
31 -780 319 -877 761 -36 160 -29 406 15 572 96 363 369 619 734 688 112 21
361 13 466 -15z"/>
<path d="M80426 9860 c-163 -20 -326 -70 -440 -134 -153 -85 -266 -199 -364
-362 l-52 -88 0 292 0 292 -165 0 -165 0 0 -1295 0 -1295 165 0 164 0 3 758 3
757 27 97 c66 239 186 416 362 532 165 109 327 151 556 143 240 -8 374 -60
515 -202 124 -123 181 -252 205 -460 6 -53 10 -404 10 -857 l0 -768 165 0 166
0 -3 903 -3 902 -27 96 c-55 201 -126 327 -252 446 -121 116 -267 189 -452
228 -92 19 -319 28 -418 15z"/>
<path d="M83265 9864 c-206 -21 -385 -72 -565 -162 -116 -58 -310 -178 -310
-191 0 -4 32 -55 70 -115 48 -73 74 -105 83 -100 6 5 51 33 98 65 245 159 476
233 734 232 278 0 468 -76 586 -233 90 -118 119 -230 119 -449 l0 -151 -457 0
c-252 0 -507 -5 -568 -10 -419 -40 -681 -207 -782 -497 -24 -69 -27 -93 -27
-213 0 -111 3 -149 22 -215 76 -264 281 -457 567 -536 99 -27 365 -37 498 -20
188 25 355 85 490 174 77 51 195 163 245 232 l21 30 1 -217 0 -218 165 0 165
0 0 803 c-1 912 -6 1060 -45 1192 -38 128 -95 233 -177 321 -175 187 -397 271
-733 278 -88 2 -178 2 -200 0z m825 -1546 l0 -183 -34 -81 c-121 -295 -382
-476 -743 -515 -390 -42 -681 111 -743 392 -19 87 -9 222 22 289 72 157 208
232 498 274 14 2 244 4 513 5 l487 1 0 -182z"/>
<path d="M91640 9860 c-385 -48 -705 -239 -905 -539 -83 -125 -137 -247 -177
-399 -31 -114 -32 -123 -32 -342 -1 -184 2 -240 18 -309 113 -519 466 -872
979 -983 148 -32 446 -32 594 0 512 111 866 467 980 984 26 119 26 467 0 588
-111 515 -476 879 -987 981 -112 22 -360 32 -470 19z m441 -308 c341 -91 581
-335 676 -687 25 -92 27 -116 27 -300 1 -180 -1 -209 -23 -289 -126 -478 -508
-758 -997 -732 -440 24 -770 292 -881 715 -31 119 -43 361 -23 492 62 426 354
737 763 815 106 20 359 12 458 -14z"/>
<path d="M94927 9854 c-112 -17 -204 -45 -295 -89 -99 -47 -154 -86 -240 -169
-89 -85 -127 -136 -187 -247 l-45 -84 0 298 0 297 -165 0 -165 0 0 -1295 0
-1295 165 0 165 0 0 715 c0 661 1 722 19 812 44 226 135 401 279 535 143 134
320 205 555 224 l87 7 0 153 0 154 -42 -1 c-24 -1 -82 -7 -131 -15z"/>
<path d="M99960 9854 c-129 -18 -301 -75 -405 -135 -140 -79 -275 -223 -359
-382 l-36 -68 -2 293 -3 293 -165 0 -165 0 -3 -1292 -2 -1293 170 0 169 0 4
753 c3 741 3 753 25 837 30 113 56 182 98 259 157 287 426 441 771 441 330 0
576 -155 680 -428 56 -151 56 -139 60 -1034 l4 -828 165 0 164 0 0 670 c0 411
4 708 11 767 40 357 210 632 472 762 138 68 216 84 407 85 190 1 246 -10 375
-74 176 -86 290 -235 347 -454 21 -79 22 -100 25 -918 l4 -838 165 0 164 0 0
863 c0 861 -3 931 -37 1067 -42 169 -107 284 -233 410 -78 79 -111 104 -186
142 -222 115 -500 146 -784 88 -261 -53 -460 -172 -602 -360 -48 -63 -137
-229 -151 -280 -6 -21 -12 -11 -37 63 -52 152 -114 254 -217 354 -117 114
-268 190 -449 228 -111 23 -316 28 -444 9z"/>
<path d="M107758 9859 c-234 -29 -466 -123 -645 -261 -144 -110 -287 -298
-364 -478 -104 -241 -136 -560 -84 -829 126 -650 662 -1059 1345 -1028 637 29
1096 423 1217 1042 23 122 23 394 0 521 -49 269 -162 488 -347 675 -179 180
-395 292 -661 344 -101 20 -354 27 -461 14z m373 -294 c402 -70 675 -344 765
-767 21 -100 24 -348 5 -448 -81 -427 -347 -705 -756 -791 -33 -7 -123 -13
-200 -13 -196 0 -317 28 -476 111 -269 140 -447 413 -488 748 -70 576 231
1047 739 1154 117 24 293 27 411 6z"/>
<path d="M111076 9859 c-226 -29 -440 -132 -582 -281 -64 -66 -144 -181 -185
-265 l-24 -48 -3 298 -2 297 -165 0 -165 0 0 -1295 0 -1295 165 0 164 0 4 738
c4 794 2 770 59 942 63 193 190 364 349 467 126 81 270 126 445 139 l94 7 0
153 0 154 -42 -1 c-24 -1 -74 -6 -112 -10z"/>
<path d="M74900 8565 l0 -1295 165 0 165 0 0 1295 0 1295 -165 0 -165 0 0
-1295z"/>
<path d="M95550 8998 c0 -711 3 -879 15 -954 51 -317 214 -553 470 -679 160
-79 345 -113 550 -102 420 23 718 201 891 530 l43 82 1 -302 0 -303 170 0 170
0 0 1295 0 1295 -170 0 -169 0 -4 -747 c-3 -722 -4 -751 -25 -835 -63 -257
-211 -476 -397 -586 -242 -142 -585 -159 -835 -40 -68 33 -101 57 -166 122
-121 121 -182 256 -204 451 -6 52 -10 414 -10 863 l0 772 -165 0 -165 0 0
-862z"/>
<path d="M4102 7098 c-51 -51 -121 -118 -156 -148 l-64 -55 156 -158 157 -157
155 155 156 156 -151 149 c-83 83 -153 150 -156 150 -2 0 -46 -42 -97 -92z
m123 -108 c18 -20 17 -20 -25 -20 -42 0 -43 0 -25 20 10 11 21 20 25 20 4 0
15 -9 25 -20z m13 -186 l-36 -37 -36 29 c-20 16 -36 32 -36 37 0 4 33 7 72 7
l73 0 -37 -36z"/>
<path d="M16055 6970 c-207 -101 -462 -174 -648 -186 -142 -9 -138 -5 -65 -82
164 -174 336 -449 455 -726 l42 -101 78 3 c206 8 504 49 698 98 205 51 439
138 431 160 -19 51 -175 251 -317 410 -139 155 -511 486 -544 483 -5 0 -64
-27 -130 -59z"/>
<path d="M942 6911 c-233 -175 -394 -318 -530 -471 -84 -94 -232 -286 -232
-300 0 -24 361 -153 573 -204 194 -48 490 -96 587 -96 l37 0 37 94 c105 266
281 556 458 756 37 40 64 78 62 82 -3 4 -31 8 -64 8 -86 0 -269 34 -403 75
-98 29 -170 58 -382 151 -6 2 -70 -40 -143 -95z"/>
<path d="M4716 6883 c-6 -14 -5 -15 5 -6 7 7 10 15 7 18 -3 3 -9 -2 -12 -12z"/>
<path d="M14881 6808 c-33 -86 -115 -269 -186 -415 l-83 -172 36 -27 c249
-187 439 -462 551 -799 106 -317 94 -585 -40 -891 -99 -227 -242 -419 -548
-739 -182 -190 -311 -347 -577 -701 -236 -315 -300 -421 -347 -569 -40 -129
-57 -226 -68 -398 -5 -89 -11 -162 -12 -163 -1 -1 -60 18 -132 41 -71 24 -164
51 -205 60 -101 22 -344 31 -440 16 -71 -11 -633 -167 -840 -233 -139 -44
-303 -107 -491 -186 -390 -166 -650 -231 -919 -232 -288 0 -525 83 -751 264
-300 240 -488 520 -584 866 -15 52 -28 101 -30 108 -3 7 -22 12 -49 12 -25 0
-78 11 -118 24 -40 13 -132 31 -204 40 -197 24 -308 62 -372 129 l-33 34 88 5
c108 7 166 28 298 109 205 125 291 156 408 145 170 -16 277 -97 277 -211 0
-41 -5 -52 -38 -85 -75 -75 -175 -75 -215 0 -38 71 16 125 94 94 43 -18 59
-13 43 14 -20 32 -57 45 -105 38 -40 -6 -49 -12 -67 -45 -40 -71 -28 -136 31
-175 37 -24 49 -27 109 -24 55 3 75 9 110 34 63 44 88 87 88 148 -1 135 -117
232 -308 257 -86 12 -93 11 -174 -14 -92 -29 -194 -73 -203 -88 -10 -15 -187
-115 -225 -127 -19 -6 -82 -16 -140 -22 -115 -13 -140 -21 -140 -50 0 -21 74
-90 135 -125 68 -40 184 -72 320 -90 71 -9 131 -18 134 -21 2 -2 -29 -4 -70
-4 -41 0 -98 -3 -126 -6 l-53 -7 0 -131 c0 -77 6 -160 15 -201 73 -345 309
-709 648 -1001 283 -243 502 -365 792 -439 185 -47 293 -60 510 -59 439 1 689
72 1470 417 431 190 677 280 908 331 266 60 557 49 787 -29 l69 -24 5 32 c3
18 7 67 10 109 20 279 146 571 370 853 127 161 268 315 547 600 426 435 535
559 665 761 249 386 380 858 345 1245 -51 553 -383 1265 -739 1583 -59 52
-150 119 -200 145 -19 10 -23 9 -31 -11z"/>
<path d="M14280 6206 c-71 -20 -157 -68 -270 -151 -119 -87 -213 -138 -298
-161 -34 -9 -135 -18 -252 -23 -198 -9 -278 -24 -365 -69 -62 -31 -149 -129
-243 -270 -125 -190 -159 -222 -321 -307 -160 -83 -210 -125 -250 -208 -65
-131 -74 -242 -26 -287 29 -27 63 -24 150 14 102 44 156 38 475 -45 140 -36
180 -43 265 -43 112 -1 161 15 227 73 38 33 66 37 145 22 37 -7 45 -5 63 14
25 27 18 32 -66 41 -30 4 -54 10 -54 13 0 4 9 32 20 64 39 111 24 217 -44 307
-16 21 -22 36 -15 39 20 6 203 -21 266 -40 35 -11 92 -33 127 -49 64 -28 64
-28 82 -9 23 25 21 26 -111 78 -101 40 -227 71 -287 71 l-32 0 35 36 c60 63
77 68 264 75 188 7 256 23 357 83 47 29 136 132 138 159 0 5 -32 -17 -71 -47
-39 -31 -105 -73 -147 -93 l-76 -38 -166 0 -166 0 -69 -34 c-45 -22 -92 -57
-132 -97 l-63 -62 -47 18 c-177 67 -303 2 -320 -164 -8 -74 14 -121 69 -146
24 -11 58 -20 76 -20 27 0 32 4 32 24 0 19 -6 24 -38 30 -21 3 -48 16 -60 29
-79 84 23 239 146 223 123 -16 222 -133 222 -262 0 -59 -35 -149 -77 -194 -18
-21 -55 -49 -81 -61 -41 -20 -61 -23 -152 -23 -91 1 -129 7 -283 47 -301 78
-356 80 -497 23 l-60 -24 -11 37 c-8 28 -8 52 0 90 25 118 86 191 213 256 210
108 295 184 411 374 155 250 222 285 587 301 269 12 329 32 544 190 154 114
219 143 327 148 59 3 103 0 138 -11 48 -14 52 -14 61 3 15 27 15 26 -52 49
-70 24 -167 26 -238 7z"/>
<path d="M57607 5554 c-4 -4 -7 -830 -7 -1836 l0 -1828 170 0 170 0 0 708 c0
765 3 812 55 969 102 304 312 508 600 584 101 26 321 37 421 20 170 -29 300
-94 404 -201 99 -103 167 -250 189 -413 7 -50 11 -367 11 -873 l0 -794 171 0
170 0 -4 878 c-4 951 -4 938 -61 1109 -143 426 -538 652 -1054 605 -411 -37
-689 -206 -861 -522 l-41 -75 -2 835 -3 835 -161 3 c-88 1 -163 -1 -167 -4z"/>
<path d="M97211 5450 c-51 -12 -113 -61 -141 -110 -34 -61 -35 -165 -2 -227
26 -50 84 -100 132 -113 182 -51 335 103 290 291 -17 70 -85 140 -152 157 -52
13 -77 14 -127 2z"/>
<path d="M65965 5370 c-506 -58 -844 -288 -947 -645 -20 -69 -23 -101 -22
-235 1 -137 4 -165 28 -243 14 -49 37 -110 50 -136 40 -77 135 -189 220 -257
144 -115 266 -168 781 -339 473 -157 574 -203 700 -317 106 -97 156 -194 174
-334 38 -302 -133 -530 -470 -627 -132 -39 -247 -50 -431 -44 -125 4 -188 11
-268 30 -281 67 -535 196 -752 381 l-75 64 -79 -140 -78 -141 44 -39 c207
-181 475 -329 738 -407 306 -91 686 -97 992 -15 267 71 500 225 626 416 118
177 160 406 119 643 -31 176 -97 297 -236 431 -162 155 -335 238 -804 383
-458 143 -622 220 -758 357 -94 94 -129 168 -146 301 -28 222 69 393 281 497
114 57 216 83 374 98 308 28 717 -68 1003 -235 l61 -36 71 140 c39 78 68 147
66 153 -7 16 -203 116 -315 160 -124 49 -283 93 -422 117 -132 23 -401 33
-525 19z"/>
<path d="M83940 5360 c-421 -58 -796 -248 -1081 -547 -204 -216 -354 -480
-424 -750 -84 -322 -69 -699 40 -1013 99 -282 295 -570 519 -757 265 -223 562
-360 901 -414 123 -20 438 -17 560 5 333 60 693 235 933 452 l43 39 -97 105
c-54 58 -101 106 -106 108 -4 2 -36 -20 -70 -49 -194 -162 -443 -281 -698
-336 -122 -26 -449 -25 -570 1 -207 45 -420 140 -580 261 -116 86 -263 242
-344 362 -102 154 -165 300 -208 483 -25 109 -36 402 -18 521 89 611 548 1093
1157 1216 66 13 136 18 283 18 168 0 209 -3 300 -23 248 -56 508 -186 682
-341 31 -28 60 -51 65 -50 17 1 195 220 189 234 -3 8 -40 42 -83 76 -236 189
-520 322 -809 380 -86 17 -152 22 -314 25 -113 1 -234 -1 -270 -6z"/>
<path d="M106710 5353 c-237 -27 -559 -150 -776 -296 -119 -80 -214 -158 -207
-171 26 -47 129 -214 139 -225 10 -11 22 -6 71 37 173 149 390 262 623 324
205 54 487 49 666 -12 144 -50 283 -160 338 -267 54 -108 71 -270 41 -387 -47
-181 -199 -431 -396 -651 -34 -38 -379 -400 -766 -804 l-703 -735 0 -138 0
-138 1230 0 1231 0 -3 153 -3 152 -1006 5 -1006 5 390 405 c925 959 956 992
1100 1194 202 281 307 532 307 731 0 78 -27 217 -56 290 -110 275 -388 463
-767 519 -96 15 -352 20 -447 9z"/>
<path d="M109936 5345 c-377 -61 -662 -240 -857 -538 -201 -306 -289 -668
-289 -1187 0 -597 119 -1003 389 -1324 222 -264 537 -405 951 -423 597 -26
1039 217 1285 706 85 171 147 385 182 632 25 175 25 642 0 819 -92 658 -386
1079 -875 1254 -146 52 -250 67 -482 71 -156 3 -239 0 -304 -10z m470 -270
c219 -38 392 -128 524 -272 254 -278 365 -718 339 -1350 -30 -714 -298 -1153
-780 -1274 -118 -29 -369 -37 -496 -15 -201 35 -350 111 -489 250 -181 182
-284 416 -341 776 -26 165 -26 694 0 858 39 244 102 439 195 595 54 90 161
211 240 269 112 83 268 145 418 167 98 14 295 12 390 -4z"/>
<path d="M113006 5344 c-241 -37 -504 -143 -727 -292 -108 -72 -199 -147 -199
-163 0 -11 140 -239 146 -239 3 0 33 23 67 52 205 171 478 300 723 343 168 29
417 14 557 -34 200 -69 337 -204 382 -376 19 -76 19 -210 -1 -289 -22 -85
-100 -245 -174 -357 -132 -199 -134 -201 -1138 -1249 l-542 -565 0 -142 0
-143 1225 0 1226 0 -3 153 -3 152 -1008 3 -1008 2 614 638 c657 681 723 753
857 933 241 322 343 579 327 817 -28 403 -333 684 -820 756 -128 20 -378 19
-501 0z"/>
<path d="M68180 3615 l0 -1725 1185 0 1185 0 0 155 0 155 -1015 0 -1015 0 0
650 0 650 880 0 880 0 0 150 0 150 -880 0 -880 0 0 620 0 620 985 0 985 0 0
150 0 150 -1155 0 -1155 0 0 -1725z"/>
<path d="M71715 3762 c-390 -867 -740 -1643 -777 -1724 l-67 -148 183 0 183 0
188 428 c104 235 195 442 203 460 l16 32 958 -2 959 -3 203 -455 203 -455 187
-3 c176 -2 186 -1 178 15 -5 10 -355 786 -778 1726 l-768 1707 -181 0 -180 0
-710 -1578z m1295 288 c221 -498 405 -911 407 -917 4 -10 -163 -13 -817 -13
-481 0 -820 4 -818 9 2 5 185 423 408 930 231 528 407 916 411 909 4 -7 188
-420 409 -918z"/>
<path d="M76700 3615 l0 -1725 935 0 936 0 -3 152 -3 153 -757 3 -758 2 0
1570 0 1570 -175 0 -175 0 0 -1725z"/>
<path d="M79555 3653 c-418 -928 -768 -1705 -777 -1725 l-17 -38 183 0 182 0
202 458 201 457 959 3 959 2 173 -387 c95 -214 188 -421 206 -460 l33 -73 186
0 186 0 -14 27 c-8 16 -358 792 -778 1725 l-764 1698 -180 0 -180 0 -760
-1687z m1341 406 c223 -503 408 -920 411 -926 4 -10 -163 -13 -817 -13 -654 0
-821 3 -817 13 25 64 811 1846 813 1844 2 -2 186 -415 410 -918z"/>
<path d="M87540 3615 l0 -1725 170 0 170 0 0 560 0 560 580 2 c319 1 587 2
596 2 11 1 139 -184 388 -561 l371 -562 198 -1 198 0 -33 48 c-17 26 -202 291
-410 589 -208 299 -378 547 -378 553 0 5 6 10 14 10 7 0 53 16 102 36 252 100
442 272 554 499 84 170 120 342 120 570 0 345 -85 577 -289 788 -160 166 -374
272 -665 329 -108 22 -134 22 -898 26 l-788 3 0 -1726z m1577 1402 c450 -82
693 -320 733 -723 19 -192 -8 -370 -81 -521 -125 -261 -395 -418 -779 -453
-63 -5 -339 -10 -612 -10 l-498 0 0 866 0 866 573 -5 c475 -3 587 -7 664 -20z"/>
<path d="M55768 4738 l-3 -333 -187 -3 -188 -2 0 -125 0 -125 188 -2 187 -3 5
-875 6 -875 22 -75 c72 -233 220 -377 438 -426 111 -24 297 -15 419 20 82 24
264 106 308 140 16 13 14 21 -28 131 -26 65 -48 122 -50 126 -3 4 -33 -8 -67
-27 -35 -19 -106 -48 -158 -65 -81 -27 -110 -32 -200 -33 -89 0 -113 3 -155
22 -96 44 -152 119 -185 247 -19 75 -20 111 -20 887 l0 808 420 0 420 0 0 130
0 130 -420 -2 -420 -3 0 333 0 332 -165 0 -165 0 -2 -332z"/>
<path d="M4720 4922 c0 -6 25 -41 56 -79 31 -37 65 -86 77 -108 11 -22 48 -83
82 -135 49 -76 60 -99 51 -112 -14 -22 30 -74 49 -58 9 8 32 -12 83 -73 74
-87 195 -207 296 -292 33 -27 86 -78 120 -113 33 -35 87 -81 119 -102 37 -24
54 -40 45 -44 -7 -3 -3 -3 10 0 12 3 22 1 22 -4 0 -24 294 -77 500 -92 148
-11 377 -4 386 12 3 4 0 8 -7 8 -22 0 -318 130 -480 211 -474 236 -912 538
-1311 902 -54 49 -98 85 -98 79z"/>
<path d="M4080 4744 l-135 -136 153 -148 c84 -81 164 -153 178 -160 24 -13 29
-9 149 115 l124 129 -36 40 c-24 28 -292 293 -298 296 0 0 -61 -61 -135 -136z
m204 -121 c39 -37 73 -71 75 -76 2 -5 -29 -42 -69 -82 l-72 -73 -76 73 -75 73
69 76 c38 42 70 76 73 76 2 0 36 -30 75 -67z"/>
<path d="M61670 4480 c-725 -90 -1186 -730 -1085 -1503 65 -495 379 -881 839
-1031 146 -48 236 -60 436 -60 212 0 315 15 478 69 192 64 366 168 495 293
l57 56 -91 92 -92 92 -80 -68 c-139 -118 -313 -204 -496 -243 -127 -27 -359
-28 -476 -3 -174 38 -321 116 -452 240 -154 145 -249 329 -288 560 -8 49 -15
93 -15 97 0 5 476 9 1081 9 l1082 0 -6 168 c-23 672 -355 1109 -927 1217 -102
19 -356 27 -460 15z m405 -285 c278 -58 492 -230 602 -486 41 -95 70 -206 79
-304 l7 -75 -932 0 -933 0 7 43 c38 242 128 432 274 578 142 142 323 229 536
258 91 13 263 6 360 -14z"/>
<path d="M91865 4475 c-295 -42 -528 -157 -722 -358 -182 -188 -290 -403 -339
-672 -24 -134 -24 -393 0 -525 103 -569 518 -960 1096 -1031 117 -14 343 -6
460 16 262 51 500 169 684 340 l60 56 -94 94 -93 94 -55 -50 c-141 -129 -326
-221 -534 -265 -113 -24 -352 -24 -463 0 -344 75 -614 331 -710 673 -25 89
-46 219 -37 228 3 3 489 5 1080 5 l1075 0 -6 173 c-7 269 -52 453 -160 660
-117 225 -296 390 -527 484 -198 82 -477 112 -715 78z m424 -280 c376 -79 631
-374 679 -783 5 -40 6 -74 4 -77 -9 -8 -1850 -6 -1855 3 -8 14 24 167 54 256
113 338 400 571 760 615 93 12 268 5 358 -14z"/>
<path d="M94755 4483 c-286 -35 -521 -141 -700 -318 -165 -162 -277 -378 -332
-635 -22 -107 -25 -425 -4 -540 29 -166 105 -357 196 -495 54 -83 225 -251
313 -309 205 -135 439 -194 717 -183 370 15 673 180 867 472 l59 90 -4 -300
c-4 -230 -8 -316 -21 -368 -82 -348 -341 -598 -691 -668 -130 -25 -255 -32
-378 -19 -259 26 -464 109 -683 276 -47 36 -87 64 -88 62 -22 -27 -146 -220
-146 -227 0 -14 102 -91 202 -153 355 -221 783 -297 1195 -212 442 90 762 373
887 784 56 185 56 179 56 1513 l0 1227 -165 0 -165 0 -1 -277 c0 -219 -3 -274
-12 -260 -7 10 -30 46 -52 80 -96 149 -285 308 -449 376 -176 73 -416 107
-601 84z m425 -294 c363 -90 623 -387 680 -778 17 -115 7 -343 -18 -441 -76
-287 -238 -490 -486 -610 -155 -74 -209 -85 -421 -84 -166 0 -187 2 -268 27
-152 47 -267 116 -378 226 -194 194 -291 465 -276 771 25 485 342 845 802 910
90 13 268 3 365 -21z"/>
<path d="M99230 4476 c-569 -83 -968 -465 -1076 -1031 -24 -122 -24 -385 0
-515 110 -614 579 -1018 1216 -1047 295 -13 561 53 797 198 119 74 298 253
372 372 148 241 210 492 198 801 -14 356 -130 631 -366 867 -178 179 -381 286
-644 340 -132 27 -365 34 -497 15z m475 -306 c416 -112 682 -462 702 -925 10
-222 -24 -391 -112 -570 -62 -124 -143 -229 -238 -305 -71 -58 -254 -150 -342
-174 -99 -26 -242 -39 -348 -32 -453 31 -784 321 -878 768 -29 141 -30 363 -1
498 85 403 361 682 749 755 114 21 362 14 468 -15z"/>
<path d="M102632 4480 c-374 -47 -642 -215 -807 -506 l-45 -78 -2 290 -3 289
-167 3 -168 2 0 -1295 0 -1295 170 0 170 0 0 729 c0 609 2 742 15 808 65 340
265 594 552 696 126 45 231 60 388 54 236 -9 370 -62 511 -202 126 -124 185
-262 204 -478 5 -56 9 -441 10 -854 l0 -753 165 0 165 0 0 853 c0 893 -3 953
-46 1097 -82 277 -273 485 -530 579 -44 16 -116 37 -160 46 -94 20 -319 28
-422 15z"/>
<path d="M97100 3185 l0 -1295 170 0 170 0 -2 1293 -3 1292 -167 3 -168 2 0
-1295z"/>
<path d="M4901 4249 c-80 -84 -130 -144 -125 -149 5 -5 35 -18 67 -29 l57 -20
72 80 c40 43 78 79 84 79 6 0 75 -69 154 -152 l144 -153 123 -36 122 -36 -56
64 c-31 35 -83 87 -117 115 -140 120 -238 213 -307 293 -40 47 -75 85 -78 84
-3 0 -66 -63 -140 -140z"/>
<path d="M11857 4300 c-26 -5 -116 -31 -200 -58 -195 -65 -251 -75 -347 -62
-105 13 -126 12 -145 -6 -30 -30 7 -128 70 -182 47 -42 78 -57 154 -77 112
-29 174 -57 220 -100 70 -65 124 -89 201 -90 78 0 133 25 168 76 34 49 27 127
-14 170 -39 42 -75 59 -122 59 -49 0 -79 -23 -97 -75 -12 -37 -12 -42 8 -62
11 -13 29 -23 40 -23 15 0 18 4 12 23 -20 64 -19 75 14 82 63 14 108 -10 131
-69 14 -39 -13 -93 -60 -118 -71 -37 -160 -14 -254 66 -76 64 -93 73 -191 97
-119 29 -180 62 -211 114 -41 70 -41 70 108 70 125 1 141 3 258 39 69 21 154
47 190 58 39 12 98 20 146 21 69 1 89 -3 137 -26 76 -38 153 -124 211 -235 40
-79 135 -202 155 -202 3 0 12 4 20 9 11 7 4 21 -35 64 -27 31 -74 101 -104
157 -30 56 -72 121 -92 145 -92 105 -239 158 -371 135z"/>
<path d="M6901 3944 c0 -11 3 -14 6 -6 3 7 2 16 -1 19 -3 4 -6 -2 -5 -13z"/>
<path d="M74690 3385 l0 -125 570 0 570 0 0 125 0 125 -570 0 -570 0 0 -125z"/>
<path d="M8554 1892 c-106 -220 -237 -399 -441 -605 l-127 -127 13 -38 c151
-431 362 -827 574 -1076 l34 -40 63 80 c206 259 405 620 525 949 l45 125 -118
118 c-192 191 -335 384 -435 587 -29 61 -58 120 -63 132 -8 19 -17 6 -70 -105z"/>
</g>
</svg>
